<?xml version="1.0" standalone="no"?>
<!DOCTYPE svg PUBLIC "-//W3C//DTD SVG 20010904//EN"
 "http://www.w3.org/TR/2001/REC-SVG-20010904/DTD/svg10.dtd">
<svg version="1.0" xmlns="http://www.w3.org/2000/svg"
 width="230.000000pt" height="230.000000pt" viewBox="0 0 230.000000 230.000000"
 preserveAspectRatio="xMidYMid meet">
<metadata>
Created by potrace 1.11, written by Peter Selinger 2001-2013
</metadata>
<g transform="translate(0.000000,230.000000) scale(0.100000,-0.100000)"
fill="#000000" stroke="none">
<path d="M980 2238 c-33 -4 -92 -26 -147 -54 -137 -68 -217 -133 -265 -213
-12 -20 -37 -61 -56 -91 -113 -173 -130 -423 -42 -589 56 -105 192 -245 324
-335 112 -76 143 -109 199 -214 44 -80 117 -172 137 -172 5 0 30 -22 55 -49
26 -27 65 -57 86 -65 36 -14 39 -18 29 -37 -14 -25 -6 -49 15 -49 13 0 14 -4
5 -21 -15 -26 3 -49 37 -49 22 0 23 -1 9 -16 -20 -19 -20 -48 -2 -67 8 -8 12
-23 10 -35 -4 -12 1 -25 13 -33 10 -8 24 -26 30 -42 12 -26 22 -30 73 -28 14
1 42 -5 63 -12 52 -19 99 -12 179 24 88 41 130 85 134 139 1 23 5 44 8 47 7 8
-35 84 -50 90 -11 4 -11 10 -2 26 9 17 7 24 -12 39 -12 10 -31 18 -41 18 -16
0 -15 3 7 25 20 20 23 28 14 45 -10 20 -24 24 -65 21 -11 -1 -70 -26 -131 -56
-60 -30 -132 -59 -158 -65 -27 -6 -57 -15 -68 -21 -14 -7 -23 -7 -34 1 -22 19
-9 27 60 33 89 8 137 35 238 130 97 91 119 130 119 210 0 59 2 51 -41 217 -28
109 -32 135 -27 210 3 47 8 97 11 113 3 15 8 37 10 50 3 12 14 71 26 130 26
136 31 233 14 317 -28 138 -126 277 -252 357 -91 59 -108 62 -407 77 -27 1
-75 -1 -105 -6z m130 -21 c-3 -3 -83 -31 -178 -63 -96 -31 -198 -72 -228 -90
-30 -18 -54 -29 -54 -26 1 23 189 134 275 162 44 15 197 28 185 17z m337 -53
c69 -35 151 -106 189 -164 10 -14 0 -8 -23 15 -80 80 -188 148 -286 180 l-42
14 45 -4 c25 -3 77 -21 117 -41z m-158 17 c7 -5 -30 -11 -81 -14 -113 -7 -208
-35 -308 -89 -41 -23 -77 -44 -80 -47 -3 -3 -26 -23 -52 -44 -84 -67 -128
-121 -167 -202 -43 -89 -53 -131 -52 -220 1 -64 2 -76 21 -144 42 -155 197
-363 328 -438 63 -36 155 -95 167 -108 44 -45 165 -222 165 -242 0 -12 72 -94
78 -89 3 4 -4 16 -15 29 -11 12 -48 70 -83 128 -86 146 -125 188 -253 273
-170 113 -261 214 -331 368 -115 250 -44 485 199 660 162 116 393 172 541 130
128 -36 252 -173 288 -317 4 -16 10 -39 13 -50 3 -11 7 -74 8 -140 3 -112 -6
-200 -33 -315 -38 -161 -44 -204 -38 -285 3 -44 10 -105 16 -135 21 -113 2
-225 -50 -288 -11 -13 -24 -20 -31 -16 -39 24 -138 329 -175 544 -3 14 -11 61
-19 105 -15 86 -18 107 -34 230 -22 173 -23 205 -9 205 7 0 26 10 42 23 50 40
30 118 -28 103 -30 -7 -44 -30 -50 -81 -3 -20 -6 -38 -8 -39 -2 -1 -25 -15
-52 -31 -62 -35 -172 -144 -222 -219 -31 -48 -40 -55 -58 -49 -59 22 -136 -4
-159 -54 -10 -22 -8 -28 15 -48 35 -30 77 -22 130 25 l43 38 41 -29 c92 -63
194 -207 261 -368 20 -47 61 -161 93 -253 l56 -168 -38 0 c-21 0 -38 4 -38 9
0 6 -15 7 -33 4 -44 -7 -73 23 -131 140 -99 196 -125 224 -292 308 -145 72
-232 176 -299 353 -63 168 -68 339 -12 471 58 139 134 208 304 276 41 16 102
43 136 61 34 17 73 34 87 38 33 10 184 10 199 1z m-529 -116 c0 -2 -10 -9 -22
-15 -22 -11 -22 -10 -4 4 21 17 26 19 26 11z m-107 -84 c-32 -33 -69 -80 -82
-105 -26 -54 -43 -68 -31 -28 13 47 30 75 73 117 36 35 86 75 95 75 2 0 -23
-27 -55 -59z m1004 -79 c14 -29 23 -55 22 -56 -2 -2 -21 31 -41 73 -21 42 -30
67 -21 56 8 -11 26 -44 40 -73z m11 43 c-3 -3 -9 2 -12 12 -6 14 -5 15 5 6 7
-7 10 -15 7 -18z m-1166 -187 c-13 -105 -5 -252 19 -370 14 -70 88 -222 133
-275 58 -66 42 -61 -25 8 -140 148 -189 248 -193 399 -2 47 3 112 11 145 13
59 54 168 60 162 1 -2 -1 -33 -5 -69z m1215 50 c-3 -8 -6 -5 -6 6 -1 11 2 17
5 13 3 -3 4 -12 1 -19z m12 -124 c-2 -58 -5 -107 -8 -109 -3 -2 -6 46 -6 106
0 60 4 109 8 109 5 0 7 -48 6 -106z m-383 49 c-4 -11 -18 -25 -31 -31 -24 -11
-25 -10 -25 23 0 22 6 38 18 44 23 13 46 -9 38 -36z m-75 -110 c1 -16 3 -37 4
-48 1 -11 5 -47 9 -80 8 -74 23 -176 41 -275 8 -41 16 -86 19 -100 37 -205 86
-376 137 -479 45 -90 44 -98 -14 -111 l-36 -8 -46 137 c-98 291 -168 445 -247
544 -36 45 -110 116 -140 135 -16 9 -28 20 -28 25 0 12 117 155 160 195 38 36
118 92 132 92 4 0 9 -12 9 -27z m-356 -269 c14 -6 11 -12 -17 -36 -53 -46
-108 -51 -108 -9 0 39 73 65 125 45z m735 -184 c-9 -69 -4 -190 11 -244 19
-69 20 -190 2 -243 -21 -61 -38 -87 -70 -109 l-26 -17 20 29 c51 72 66 117 66
194 0 41 -2 89 -6 105 -25 124 -27 160 -12 275 7 52 13 75 20 68 1 -2 -1 -28
-5 -58z m77 -406 c-4 -56 -30 -124 -48 -124 -4 0 0 19 8 42 17 49 19 143 4
208 -5 25 -12 68 -15 95 -4 39 1 26 25 -55 23 -82 29 -119 26 -166z m-796 138
c24 -16 59 -45 76 -65 32 -36 128 -225 120 -234 -9 -8 -84 87 -116 148 -46 89
-74 127 -112 155 -45 33 -23 30 32 -4z m201 -205 c77 -149 72 -138 56 -132
-14 6 -35 43 -93 167 -19 42 -47 92 -62 110 l-27 33 31 -29 c17 -15 60 -83 95
-149z m413 -183 c-36 -29 -100 -53 -156 -60 -30 -3 -52 -4 -48 0 3 3 20 7 38
8 18 1 63 17 99 35 73 35 98 41 67 17z m-282 -18 c18 -13 41 -26 52 -29 20 -5
20 -5 0 -6 -18 -1 -95 43 -95 54 0 10 12 4 43 -19z m502 14 c10 -16 -37 -39
-114 -55 -41 -8 -76 -13 -78 -11 -7 7 141 75 164 76 12 0 24 -4 28 -10z m-372
-17 c-13 -2 -33 -2 -45 0 -13 2 -3 4 22 4 25 0 35 -2 23 -4z m276 -66 c-2 -1
-26 -11 -54 -21 -155 -56 -222 -79 -242 -81 -25 -4 -38 19 -19 34 15 12 139
46 201 55 59 8 99 17 104 22 2 2 7 2 9 -1 3 -3 3 -6 1 -8z m127 -10 c12 -12
-29 -39 -81 -52 -57 -15 -205 -31 -195 -21 4 3 154 60 210 79 15 5 59 1 66 -6z
m19 -77 c3 -5 0 -10 -7 -10 -7 0 -43 -15 -79 -34 -66 -34 -90 -40 -139 -36
-16 1 -20 4 -10 7 15 6 67 28 145 64 45 21 81 24 90 9z m-225 -41 c-69 -31
-191 -70 -201 -63 -14 9 -10 30 9 47 25 23 84 35 167 35 l70 1 -45 -20z m250
-19 c0 -5 -17 -14 -37 -19 -21 -6 -49 -18 -62 -27 -13 -9 -42 -19 -65 -21 -37
-3 -39 -2 -23 11 10 7 34 17 53 20 19 4 53 15 77 26 49 22 57 23 57 10z m-235
-49 c19 -3 -28 -24 -64 -28 -20 -3 -56 -13 -80 -24 -44 -19 -61 -18 -61 5 0
12 17 23 69 43 20 7 99 10 136 4z m235 -13 c0 -41 -128 -125 -204 -134 -77
-10 -88 3 -31 34 28 15 68 40 90 55 22 15 49 27 60 27 11 1 31 7 45 15 31 18
40 18 40 3z m-205 -53 c-34 -28 -124 -65 -159 -65 -28 0 -57 28 -35 33 8 2 37
12 64 21 60 21 102 31 135 34 l25 1 -30 -24z"/>
</g>
</svg>
